#!OML:ASF H:\Not Pregnant\Project 1\Capture day 1\Session 1\non-pregnant.ASF
:FULLY-SPECIFIED
:DEGREES
1507
root -6.64718 16.0714 27.9719 379.034 -75.5752 -366.409
lowerback 0.895411 0.548991 3.89096
upperback -9.31905 0.820918 0.994622
thorax -10.3615 0.0110225 -1.16977
lowerneck 15.951 -10.1812 -30.4796
upperneck -3.33527 -20.6939 39.6063
head 4.63283 -12.3813 19.0338
rclavicle 2.3556e-014 2.38542e-015
rhumerus -33.1449 -14.6787 -76.7376
rradius 27.8777
rwrist 25.1145
rhand -9.19705 4.02782
rfingers 7.12502
rthumb 16.7567 -25.269
lclavicle 2.3556e-014 2.38542e-015
lhumerus -48.8573 8.92545 76.2333
lradius 29.6518
lwrist 36.1423
lhand -16.2451 -11.8673
lfingers 7.12502
lthumb 9.96367 17.8768
rfemur -18.8363 -7.55369 21.0955
rtibia 28.1938
rfoot -20.0032 -3.46758
rtoes -16.9018
lfemur -20.658 -5.91297 9.00115
ltibia 27.5597
lfoot 0.970145 3.56632
ltoes -27.0175
1508
root -6.67529 16.085 28.0727 379.03 -76.0723 -366.36
lowerback 0.811277 0.614485 3.83693
upperback -9.32168 0.892684 0.907161
thorax -10.3087 0.0464165 -1.23927
lowerneck 15.8047 -10.1357 -30.4783
upperneck -3.18495 -20.6269 39.5762
head 4.66742 -12.3337 19.0247
rclavicle 4.22417e-014 1.51076e-014
rhumerus -33.0332 -14.2134 -77.0508
rradius 28.1511
rwrist 24.7743
rhand -9.24044 4.14927
rfingers 7.12502
rthumb 16.715 -25.1511
lclavicle 4.22417e-014 1.51076e-014
lhumerus -49.1896 9.27581 75.6189
lradius 28.6194
lwrist 34.4315
lhand -15.7858 -11.6286
lfingers 7.12502
lthumb 10.4068 18.0938
rfemur -18.3899 -7.41313 20.5918
rtibia 27.5155
rfoot -19.7987 -3.22826
rtoes -17.3266
lfemur -20.3048 -6.34055 9.54047
ltibia 25.7061
lfoot 2.63336 5.34579
ltoes -24.7648
1509
root -6.70328 16.0957 28.1759 379.261 -76.5948 -366.543
lowerback 0.715641 0.690615 3.82771
upperback -9.32981 0.982543 0.844366
thorax -10.2544 0.0877484 -1.30863
lowerneck 15.6536 -10.0851 -30.5123
upperneck -3.02634 -20.5615 39.5514
head 4.71161 -12.2869 19.0256
rclavicle -2.13694e-014 -4.77083e-015
rhumerus -32.9309 -13.6924 -77.3388
rradius 28.4193
rwrist 24.3951
rhand -9.27991 4.24509
rfingers 7.12502
rthumb 16.677 -25.0585
lclavicle -2.13694e-014 -4.77083e-015
lhumerus -49.5678 9.56332 75.1014
lradius 27.7448
lwrist 32.7892
lhand -15.5762 -11.5726
lfingers 7.12502
lthumb 10.609 18.1396
rfemur -17.9678 -7.20941 20.1285
rtibia 26.848
rfoot -19.59 -3.01872
rtoes -17.7715
lfemur -19.9547 -6.71776 10.0803
ltibia 23.912
lfoot 4.1592 6.95172
ltoes -23.0526
1510
root -6.73111 16.1035 28.2831 379.658 -77.0921 -366.881
lowerback 0.599784 0.764778 3.87662
upperback -9.34411 1.07275 0.794321
thorax -10.1947 0.124726 -1.39617
lowerneck 15.503 -10.0329 -30.5715
upperneck -2.86577 -20.5008 39.5341
head 4.76299 -12.2431 19.0352
rclavicle -1.2275e-014 -1.59028e-015
rhumerus -32.8398 -13.2032 -77.5717
rradius 28.6693
rwrist 24.0446
rhand -9.30243 4.31727
rfingers 7.12502
rthumb 16.6553 -24.9881
lclavicle -1.2275e-014 -1.59028e-015
lhumerus -49.9884 9.74307 74.7207
lradius 27.0643
lwrist 31.3473
lhand -15.6881 -11.7205
lfingers 7.12502
lthumb 10.5011 17.9972
rfemur -17.5756 -7.01804 19.6939
rtibia 26.2027
rfoot -19.3906 -2.82562
rtoes -18.2428
lfemur -19.6566 -7.07752 10.6094
ltibia 22.2027
lfoot 5.53219 8.31684
ltoes -21.9925
1511
root -6.75861 16.1082 28.3942 380.198 -77.5619 -367.356
lowerback 0.470026 0.836057 3.97723
upperback -9.36137 1.16127 0.748241
thorax -10.1296 0.156669 -1.50755
lowerneck 15.347 -9.98748 -30.6178
upperneck -2.70637 -20.4462 39.5168
head 4.81588 -12.202 19.04
rclavicle -1.25234e-014 -4.37326e-015
rhumerus -32.7567 -12.7779 -77.7531
rradius 28.8941
rwrist 23.7466
rhand -9.30601 4.39261
rfingers 7.12502
rthumb 16.6519 -24.9131
lclavicle -1.25234e-014 -4.37326e-015
lhumerus -50.4418 9.79985 74.489
lradius 26.5906
lwrist 30.145
lhand -16.1769 -12.0683
lfingers 7.12502
lthumb 10.0295 17.6727
rfemur -17.2135 -6.83027 19.2774
rtibia 25.5947
rfoot -19.2057 -2.66204
rtoes -18.7315
lfemur -19.4112 -7.41746 11.1206
ltibia 20.5871
lfoot 6.73439 9.36185
ltoes -21.5653
1512
root -6.78593 16.1095 28.5093 380.888 -78.0234 -367.979
lowerback 0.332109 0.908439 4.11515
upperback -9.38154 1.25271 0.705794
thorax -10.0621 0.18703 -1.63556
lowerneck 15.1929 -9.94816 -30.6476
upperneck -2.55077 -20.3971 39.4984
head 4.86728 -12.1637 19.0393
rclavicle -7.8023e-015 -1.63003e-014
rhumerus -32.6778 -12.4088 -77.8912
rradius 29.0824
rwrist 23.4933
rhand -9.243 4.48696
rfingers 7.12502
rthumb 16.7125 -24.8136
lclavicle -7.8023e-015 -1.63003e-014
lhumerus -50.9294 9.75372 74.3869
lradius 26.3223
lwrist 29.193
lhand -16.99 -12.5646
lfingers 7.12502
lthumb 9.24503 17.2127
rfemur -16.8832 -6.64023 18.8711
rtibia 25.031
rfoot -19.0396 -2.51245
rtoes -19.2318
lfemur -19.2052 -7.72675 11.6042
ltibia 19.0746
lfoot 7.76541 10.035
ltoes -21.6663
1513
root -6.81275 16.1074 28.6272 381.765 -78.5178 -368.792
lowerback 0.201985 0.988247 4.26024
upperback -9.404 1.35532 0.675153
thorax -10.001 0.222678 -1.75561
lowerneck 15.0276 -9.91069 -30.6667
upperneck -2.38972 -20.3456 39.4719
head 4.91846 -12.1224 19.0316
rclavicle 6.53505e-015 1.59028e-015
rhumerus -32.5995 -12.063 -77.9942
rradius 29.2385
rwrist 23.2782
rhand -9.1844 4.56638
rfingers 7.12502
rthumb 16.7689 -24.7294
lclavicle 6.53505e-015 1.59028e-015
lhumerus -51.4513 9.69098 74.3431
lradius 26.2234
lwrist 28.3388
lhand -17.9995 -13.1222
lfingers 7.12502
lthumb 8.2708 16.6959
rfemur -16.5911 -6.41877 18.4685
rtibia 24.5181
rfoot -18.8942 -2.36095
rtoes -19.7449
lfemur -19.0046 -7.99932 12.0596
ltibia 17.6615
lfoot 8.63538 10.3162
ltoes -22.0447
1514
root -6.83908 16.1026 28.7492 382.687 -78.9734 -369.645
lowerback 0.0700312 1.06192 4.43509
upperback -9.43071 1.45077 0.64693
thorax -9.94328 0.25228 -1.88858
lowerneck 14.8666 -9.87866 -30.693
upperneck -2.23452 -20.3032 39.4455
head 4.97203 -12.0859 19.0233
rclavicle -2.13694e-014 -1.63003e-014
rhumerus -32.5293 -11.8098 -78.0204
rradius 29.3557
rwrist 23.1506
rhand -9.01686 4.7116
rfingers 7.12502
rthumb 16.9302 -24.5705
lclavicle -2.13694e-014 -1.63003e-014
lhumerus -51.993 9.64451 74.3221
lradius 26.2653
lwrist 27.5817
lhand -19.0753 -13.6435
lfingers 7.12502
lthumb 7.23245 16.213
rfemur -16.3258 -6.23881 18.0545
rtibia 24.0516
rfoot -18.7757 -2.20945
rtoes -20.2593
lfemur -18.8631 -8.28853 12.4775
ltibia 16.3491
lfoot 9.41267 10.1672
ltoes -22.579
1515
root -6.86516 16.0947 28.873 383.804 -79.4712 -370.7
lowerback -0.0443307 1.15256 4.59083
upperback -9.46299 1.56965 0.633062
thorax -9.90086 0.29519 -1.99743
lowerneck 14.7129 -9.85259 -30.7142
upperneck -2.08566 -20.2668 39.4086
head 5.02244 -12.052 19.0068
rclavicle -1.90088e-014 -6.75868e-015
rhumerus -32.474 -11.5377 -78.0125
rradius 29.4526
rwrist 23.0062
rhand -8.80518 4.85694
rfingers 7.12502
rthumb 17.134 -24.4076
lclavicle -1.90088e-014 -6.75868e-015
lhumerus -52.5497 9.66381 74.2682
lradius 26.4196
lwrist 26.9168
lhand -20.1159 -14.0093
lfingers 7.12502
lthumb 6.22794 15.8792
rfemur -16.0898 -6.00824 17.6357
rtibia 23.6248
rfoot -18.6727 -2.06362
rtoes -20.7675
lfemur -18.7148 -8.55104 12.857
ltibia 15.137
lfoot 10.1754 9.59878
ltoes -23.2216
1516
root -6.89103 16.0848 29.0001 384.935 -79.9414 -371.773
lowerback -0.148879 1.23922 4.74994
upperback -9.49914 1.68399 0.625343
thorax -9.86858 0.335574 -2.10103
lowerneck 14.5695 -9.83236 -30.7303
upperneck -1.95062 -20.2335 39.3577
head 5.06524 -12.0189 18.9807
rclavicle 2.58917e-014 1.74931e-014
rhumerus -32.4319 -11.3462 -77.927
rradius 29.5132
rwrist 22.9406
rhand -8.57134 5.0038
rfingers 7.12502
rthumb 17.359 -24.241
lclavicle 2.58917e-014 1.74931e-014
lhumerus -53.1069 9.74184 74.1896
lradius 26.6672
lwrist 26.467
lhand -21.0267 -14.1992
lfingers 7.12502
lthumb 5.34858 15.7133
rfemur -15.8596 -5.80539 17.1944
rtibia 23.2214
rfoot -18.5861 -1.92678
rtoes -21.3009
lfemur -18.6143 -8.83548 13.1768
ltibia 14.038
lfoot 11.017 8.61692
ltoes -23.9013
1517
root -6.91685 16.073 29.1299 386.094 -80.4158 -372.885
lowerback -0.235654 1.33052 4.88952
upperback -9.53621 1.80501 0.624072
thorax -9.84743 0.380945 -2.18745
lowerneck 14.4409 -9.81923 -30.747
upperneck -1.83308 -20.2083 39.3001
head 5.10273 -11.9903 18.9493
rclavicle -1.21507e-014 -8.74653e-015
rhumerus -32.405 -11.1783 -77.7841
rradius 29.553
rwrist 22.8881
rhand -8.38513 5.10535
rfingers 7.12502
rthumb 17.5382 -24.1236
lclavicle -1.21507e-014 -8.74653e-015
lhumerus -53.6506 9.86158 74.0938
lradius 26.9958
lwrist 26.4207
lhand -21.7129 -14.2688
lfingers 7.12502
lthumb 4.68601 15.6594
rfemur -15.6241 -5.59813 16.7227
rtibia 22.8271
rfoot -18.5082 -1.79797
rtoes -21.8508
lfemur -18.5374 -9.12386 13.4206
ltibia 13.0661
lfoot 11.9595 7.31906
ltoes -24.3514
1518
root -6.94259 16.0601 29.2627 387.2 -80.8777 -373.957
lowerback -0.307817 1.41327 5.0153
upperback -9.57183 1.91479 0.624947
thorax -9.83406 0.421978 -2.26309
lowerneck 14.3238 -9.80453 -30.7789
upperneck -1.72731 -20.185 39.2504
head 5.13907 -11.9645 18.9261
rclavicle -4.05024e-015 -9.54166e-015
rhumerus -32.3841 -11.0555 -77.5923
rradius 29.5658
rwrist 22.8712
rhand -8.25103 5.15774
rfingers 7.12502
rthumb 17.6673 -24.0596
lclavicle -4.05024e-015 -9.54166e-015
lhumerus -54.1774 10.0418 73.9628
lradius 27.3948
lwrist 26.823
lhand -22.1451 -14.2441
lfingers 7.12502
lthumb 4.26867 15.6929
rfemur -15.372 -5.41349 16.2143
rtibia 22.4302
rfoot -18.4326 -1.67526
rtoes -22.4385
lfemur -18.5028 -9.42005 13.5716
ltibia 12.2422
lfoot 13.035 5.79376
ltoes -24.4246
1519
root -6.9683 16.046 29.3986 388.242 -81.3197 -374.985
lowerback -0.363339 1.48827 5.14021
upperback -9.60279 2.01485 0.619008
thorax -9.82555 0.458123 -2.34498
lowerneck 14.2233 -9.79028 -30.8035
upperneck -1.63701 -20.1626 39.2069
head 5.16856 -11.9413 18.9059
rclavicle -2.14439e-014 -1.27222e-014
rhumerus -32.3753 -11.0309 -77.3424
rradius 29.5481
rwrist 22.9303
rhand -8.16208 5.20586
rfingers 7.12502
rthumb 17.7529 -24.0038
lclavicle -2.14439e-014 -1.27222e-014
lhumerus -54.6726 10.2042 73.8498
lradius 27.8579
lwrist 27.7087
lhand -22.3561 -14.1361
lfingers 7.12502
lthumb 4.06489 15.8048
rfemur -15.0919 -5.23752 15.6717
rtibia 22.0316
rfoot -18.3553 -1.57296
rtoes -23.0496
lfemur -18.5066 -9.70634 13.623
ltibia 11.5783
lfoot 14.1736 4.20993
ltoes -24.214
1520
root -6.99394 16.0301 29.538 389.213 -81.7308 -375.961
lowerback -0.408637 1.55777 5.27364
upperback -9.62837 2.10827 0.605431
thorax -9.8168 0.490228 -2.43936
lowerneck 14.1484 -9.78163 -30.8184
upperneck -1.5722 -20.1474 39.1672
head 5.18867 -11.9243 18.8853
rclavicle 3.97818e-014 -9.93923e-015
rhumerus -32.3783 -11.0712 -77.0457
rradius 29.5034
rwrist 23.021
rhand -8.10444 5.25229
rfingers 7.12502
rthumb 17.8083 -23.9523
lclavicle 3.97818e-014 -9.93923e-015
lhumerus -55.1286 10.3573 73.7487
lradius 28.3603
lwrist 28.9785
lhand -22.3821 -13.9954
lfingers 7.12502
lthumb 4.03984 15.946
rfemur -14.7837 -5.09513 15.1019
rtibia 21.6282
rfoot -18.2752 -1.47574
rtoes -23.6844
lfemur -18.5565 -9.92482 13.5636
ltibia 11.1094
lfoot 15.1527 2.69654
ltoes -24.0147
1521
root -7.01902 16.0118 29.6807 390.2 -82.1179 -376.97
lowerback -0.442063 1.61543 5.41442
upperback -9.64898 2.18749 0.59917
thorax -9.81048 0.515257 -2.52914
lowerneck 14.0803 -9.77013 -30.8341
upperneck -1.51396 -20.1265 39.1222
head 5.20246 -11.9046 18.8639
rclavicle 1.78409e-014 -3.97569e-016
rhumerus -32.3855 -11.1538 -76.7053
rradius 29.4317
rwrist 23.1562
rhand -8.11377 5.26555
rfingers 7.12502
rthumb 17.7994 -23.9399
lclavicle 1.78409e-014 -3.97569e-016
lhumerus -55.5555 10.5428 73.6465
lradius 28.8754
lwrist 30.4519
lhand -22.2929 -13.8389
lfingers 7.12502
lthumb 4.12597 16.1009
rfemur -14.4494 -4.95222 14.5145
rtibia 21.2154
rfoot -18.1788 -1.3989
rtoes -24.3247
lfemur -18.6258 -9.99545 13.3876
ltibia 10.8902
lfoot 15.7424 1.37435
ltoes -24.2173
